<?xml version="1.0" encoding="UTF-8"?>
<svg version="1.1" xmlns="http://www.w3.org/2000/svg" width="128" height="128">
<path d="M0 0 C1.14154541 0.00757324 2.28309082 0.01514648 3.45922852 0.02294922 C11.66857281 0.18372117 18.55062718 0.9173377 26.0625 4.4375 C27.01769531 4.86160156 27.97289063 5.28570313 28.95703125 5.72265625 C42.5091326 12.3782026 49.19708142 22.83668651 54.23046875 36.640625 C57.68571894 52.40824559 56.01174442 69.32292118 47.875 83.25 C40.84655687 93.5016782 31.85512131 99.28428913 20 102.75 C12.01309432 104.14453909 4.42393427 104.23060544 -2.9375 100.4375 C-6.24589453 97.89365042 -8.59254422 95.47236735 -9.9375 91.4375 C-10.04209433 89.26625846 -10.0861529 87.09193644 -10.09863281 84.91821289 C-10.10608017 83.93232933 -10.10608017 83.93232933 -10.11367798 82.92652893 C-10.12827157 80.75439403 -10.13509616 78.5823321 -10.140625 76.41015625 C-10.14637787 74.89944965 -10.15213559 73.38874306 -10.15789795 71.8780365 C-10.16839934 68.71141215 -10.17424793 65.54481314 -10.17773438 62.37817383 C-10.18322351 58.32159792 -10.20726381 54.26535692 -10.23570633 50.20888615 C-10.25433199 47.08877076 -10.25953822 43.96873616 -10.26107025 40.84856987 C-10.26409647 39.35304364 -10.272124 37.85751883 -10.28525543 36.3620472 C-10.30231844 34.2698325 -10.3004359 32.17843776 -10.29394531 30.08618164 C-10.29941376 28.30105919 -10.29941376 28.30105919 -10.30499268 26.47987366 C-9.90220663 23.14531566 -9.4071662 21.70237855 -6.9375 19.4375 C-5.6175 19.4375 -4.2975 19.4375 -2.9375 19.4375 C0.20189284 23.21354847 0.43164154 26.38419445 0.41552734 31.18383789 C0.41768753 31.84138565 0.41984772 32.49893341 0.42207336 33.17640686 C0.42514911 34.59667583 0.42158772 36.01697165 0.41205978 37.43721199 C0.39827708 39.68633388 0.40478313 41.93457791 0.41690063 44.18370056 C0.44780847 50.57508221 0.44295489 56.96625606 0.42285156 63.35766602 C0.41193668 67.27346472 0.42511344 71.18860058 0.45274734 75.10430717 C0.45818684 76.59422836 0.45412648 78.08421591 0.44034958 79.57408333 C0.42130548 81.6569778 0.43269167 83.73769979 0.45068359 85.82055664 C0.44829681 87.00460587 0.44591003 88.18865509 0.44345093 89.40858459 C0.81278003 92.61478254 0.81278003 92.61478254 3.40078735 94.81785583 C8.51679276 97.93092978 14.28777892 97.06162379 20.0625 96.4375 C23.67716358 95.52406474 26.79406094 94.21868172 30.0625 92.4375 C30.69671875 92.09847656 31.3309375 91.75945312 31.984375 91.41015625 C41.16825211 85.70071053 45.56433 75.55371588 48.0625 65.4375 C48.63839998 62.42622638 48.93787367 59.49897287 49.0625 56.4375 C49.10246094 55.63699219 49.14242187 54.83648437 49.18359375 54.01171875 C49.52605002 41.05881402 45.9215779 29.09267016 37.0625 19.4375 C26.40111605 9.85994969 14.18952204 6.59552038 0.0625 6.4375 C-16.92597179 7.4636493 -31.19913528 13.79385488 -42.8125 26.375 C-54.7943899 41.15557951 -59.32622441 59.14686975 -57.47265625 78.0234375 C-55.2496893 92.20499306 -49.38639999 104.39747577 -37.76171875 113.05859375 C-24.02430325 122.07447528 -7.71478547 123.62966418 8.19921875 121.25 C13.6267213 120.10852322 18.71925947 118.37654284 23.91796875 116.4609375 C27.0625 115.4375 27.0625 115.4375 31.0625 115.4375 C30.68443054 117.75501669 30.39808665 119.10481468 28.70703125 120.78125 C13.15061341 130.59937299 -7.7489969 130.90609293 -25.46875 127.77734375 C-28.81112182 126.9078754 -31.79286923 125.85846952 -34.9375 124.4375 C-36.04609375 123.93992187 -37.1546875 123.44234375 -38.296875 122.9296875 C-53.61893681 115.33926517 -63.18899796 104.26947579 -68.9921875 88.3203125 C-74.39183 71.85363413 -71.91428865 52.19396041 -64.375 36.875 C-54.1858073 19.53549663 -38.83609091 7.19533507 -19.33984375 1.80078125 C-12.85790548 0.24383033 -6.64639577 -0.06201006 0 0 Z " fill="#0078C9" transform="translate(71.9375,-0.4375)"/>
<path d="M0 0 C1.9375 0.8125 1.9375 0.8125 3.9375 2.8125 C4.19146729 4.74119568 4.19146729 4.74119568 4.19628906 7.12280273 C4.20259338 8.01390244 4.20889771 8.90500214 4.21539307 9.82310486 C4.2113446 10.78769119 4.20729614 11.75227753 4.203125 12.74609375 C4.20503845 13.73497086 4.2069519 14.72384796 4.20892334 15.74269104 C4.21028598 17.83668268 4.20658408 19.93068274 4.19824219 22.0246582 C4.18755519 25.23342867 4.19812909 28.44163779 4.2109375 31.65039062 C4.2096157 33.68229291 4.20705287 35.71419484 4.203125 37.74609375 C4.20717346 38.70865585 4.21122192 39.67121796 4.21539307 40.66294861 C4.20908875 41.55720047 4.20278442 42.45145233 4.19628906 43.37280273 C4.19390228 44.55289162 4.19390228 44.55289162 4.19146729 45.75682068 C3.9375 47.8125 3.9375 47.8125 1.9375 50.8125 C-2.8125 50.0625 -2.8125 50.0625 -5.0625 47.8125 C-5.32319641 45.88380432 -5.32319641 45.88380432 -5.3371582 43.50219727 C-5.35145622 42.16554771 -5.35145622 42.16554771 -5.36604309 40.80189514 C-5.36513168 39.83730881 -5.36422028 38.87272247 -5.36328125 37.87890625 C-5.36756638 36.89002914 -5.3718515 35.90115204 -5.37626648 34.88230896 C-5.38201637 32.7883277 -5.38250521 30.69432647 -5.37817383 28.6003418 C-5.37501616 25.3914184 -5.39845718 22.18341853 -5.42382812 18.97460938 C-5.42610122 16.9427095 -5.42680457 14.91080714 -5.42578125 12.87890625 C-5.434991 11.91634415 -5.44420074 10.95378204 -5.45368958 9.96205139 C-5.44746078 9.06779953 -5.44123199 8.17354767 -5.43481445 7.25219727 C-5.43544388 6.46547134 -5.4360733 5.67874542 -5.4367218 4.86817932 C-4.8514193 1.65298916 -3.38210402 -0.307464 0 0 Z " fill="#0078C9" transform="translate(56.0625,28.1875)"/>
<path d="M0 0 C4.875 0.875 4.875 0.875 6 2 C6.10849633 3.42641312 6.14901326 4.85809215 6.16113281 6.28857422 C6.17074036 7.1997702 6.1803479 8.11096619 6.19024658 9.04977417 C6.19449646 10.04139557 6.19874634 11.03301697 6.203125 12.0546875 C6.20882507 13.0671756 6.21452515 14.0796637 6.22039795 15.12283325 C6.22986417 17.26986643 6.23638834 19.41691424 6.24023438 21.56396484 C6.24993835 24.85409837 6.2809461 28.14360706 6.3125 31.43359375 C6.31902981 33.51562127 6.32428037 35.59765329 6.328125 37.6796875 C6.3404718 38.66726044 6.3528186 39.65483337 6.36553955 40.67233276 C6.36253845 41.58983307 6.35953735 42.50733337 6.35644531 43.45263672 C6.36009094 44.26014374 6.36373657 45.06765076 6.36749268 45.89962769 C5.9102566 48.51292056 5.09908842 49.42175632 3 51 C0.9375 50.875 0.9375 50.875 -1 50 C-3.05369933 46.919451 -3.25312502 46.2582455 -3.2746582 42.77563477 C-3.28419022 41.92787979 -3.29372223 41.08012482 -3.30354309 40.2066803 C-3.30263168 39.29413986 -3.30172028 38.38159943 -3.30078125 37.44140625 C-3.30506638 36.50070786 -3.3093515 35.56000946 -3.31376648 34.59080505 C-3.31950985 32.60115361 -3.32000999 30.61148118 -3.31567383 28.62182617 C-3.31251566 25.57759768 -3.33596671 22.53434256 -3.36132812 19.49023438 C-3.36360129 17.55729289 -3.36430453 15.6243488 -3.36328125 13.69140625 C-3.372491 12.78089005 -3.38170074 11.87037384 -3.39118958 10.93226624 C-3.34476286 4.58997178 -3.34476286 4.58997178 -1.47729492 1.39428711 C-0.9897876 0.93417236 -0.50228027 0.47405762 0 0 Z " fill="#0078C9" transform="translate(76,28)"/>
<path d="M0 0 C2.53562499 3.80343749 2.28836535 6.87505274 2.265625 11.28125 C2.26753845 12.0911438 2.2694519 12.9010376 2.27142334 13.73547363 C2.27278361 15.44686189 2.26909816 17.15826051 2.26074219 18.86962891 C2.25004025 21.49014448 2.2606426 24.10997452 2.2734375 26.73046875 C2.27211588 28.39323068 2.26955343 30.05599218 2.265625 31.71875 C2.26967346 32.50318481 2.27372192 33.28761963 2.27789307 34.0958252 C2.24486246 37.9250538 2.17456212 39.73815682 0 43 C-2.86724686 42.42655063 -3.8614515 42.1385485 -6 40 C-6.212112 37.23839603 -6.30397075 34.57961948 -6.30078125 31.81640625 C-6.30506638 31.0050975 -6.3093515 30.19378876 -6.31376648 29.3578949 C-6.319514 27.64054295 -6.32000694 25.92316665 -6.31567383 24.20581055 C-6.3125165 21.5762378 -6.33595748 18.94779269 -6.36132812 16.31835938 C-6.36360132 14.65104309 -6.36430452 12.98372377 -6.36328125 11.31640625 C-6.372491 10.52883438 -6.38170074 9.74126251 -6.39118958 8.92982483 C-6.34530661 3.52234806 -6.34530661 3.52234806 -4.66479492 0.98022461 C-3 0 -3 0 0 0 Z " fill="#0078C9" transform="translate(47,36)"/>
<path d="M0 0 C3.875 1.875 3.875 1.875 5 3 C5.12583114 5.70384424 5.18865935 8.38075797 5.203125 11.0859375 C5.20882507 11.89866119 5.21452515 12.71138489 5.22039795 13.54873657 C5.22986234 15.27206108 5.23638762 16.9954038 5.24023438 18.71875 C5.24993416 21.35709216 5.28094072 23.99465359 5.3125 26.6328125 C5.31903035 28.30468286 5.3242807 29.97655881 5.328125 31.6484375 C5.3404718 32.43914642 5.3528186 33.22985535 5.36553955 34.04452515 C5.34341918 39.47908468 5.34341918 39.47908468 3.66699219 42.02197266 C2 43 2 43 -1 43 C-3.53222254 39.2016662 -3.30589635 36.12123906 -3.30078125 31.71875 C-3.30506638 30.9088562 -3.3093515 30.0989624 -3.31376648 29.26452637 C-3.31950638 27.55315078 -3.32001254 25.8417508 -3.31567383 24.13037109 C-3.31251167 21.50966916 -3.33598372 18.89009378 -3.36132812 16.26953125 C-3.36360091 14.60677226 -3.36430471 12.94401023 -3.36328125 11.28125 C-3.37709587 10.10459778 -3.37709587 10.10459778 -3.39118958 8.9041748 C-3.34476403 3.45681096 -3.34476403 3.45681096 -1.47729492 0.98242188 C-0.9897876 0.65822266 -0.50228027 0.33402344 0 0 Z " fill="#0078C9" transform="translate(87,36)"/>
<path d="M0 0 C3.875 1.875 3.875 1.875 5 3 C5.24966567 6.1382345 5.18521791 9.29049613 5.1875 12.4375 C5.19974609 13.32244141 5.21199219 14.20738281 5.22460938 15.11914062 C5.22750977 16.38854492 5.22750977 16.38854492 5.23046875 17.68359375 C5.23457764 18.46275146 5.23868652 19.24190918 5.24291992 20.04467773 C5 22 5 22 3 24 C-1.55555556 23.44444444 -1.55555556 23.44444444 -3 22 C-3.27742966 18.88354012 -3.23176472 15.75235077 -3.25 12.625 C-3.270625 11.7484375 -3.29125 10.871875 -3.3125 9.96875 C-3.31765625 9.12570313 -3.3228125 8.28265625 -3.328125 7.4140625 C-3.3374707 6.6401416 -3.34681641 5.8662207 -3.35644531 5.06884766 C-2.91476909 2.50531044 -1.97053923 1.63040985 0 0 Z " fill="#0078C9" transform="translate(97,45)"/>
<path d="M0 0 C3.875 1.875 3.875 1.875 5 3 C5.24966567 6.1382345 5.18521791 9.29049613 5.1875 12.4375 C5.19974609 13.32244141 5.21199219 14.20738281 5.22460938 15.11914062 C5.22750977 16.38854492 5.22750977 16.38854492 5.23046875 17.68359375 C5.23457764 18.46275146 5.23868652 19.24190918 5.24291992 20.04467773 C5 22 5 22 3 24 C-1.55555556 23.44444444 -1.55555556 23.44444444 -3 22 C-3.27742966 18.88354012 -3.23176472 15.75235077 -3.25 12.625 C-3.270625 11.7484375 -3.29125 10.871875 -3.3125 9.96875 C-3.31765625 9.12570313 -3.3228125 8.28265625 -3.328125 7.4140625 C-3.3374707 6.6401416 -3.34681641 5.8662207 -3.35644531 5.06884766 C-2.91476909 2.50531044 -1.97053923 1.63040985 0 0 Z " fill="#0078C9" transform="translate(34,45)"/>
</svg>
